<svg width="16" height="16" viewBox="0 0 16 16" fill="none" xmlns="http://www.w3.org/2000/svg">
<path d="M1.5 7C1.5 8.34375 1.9375 9.53125 2.71875 10.5C3.15625 11 3.5 11.6875 3.5 12.4688V15.25C3.5 15.6875 3.15625 16 2.75 16C2.3125 16 2 15.6875 2 15.25V12.4688C2 12.125 1.84375 11.7812 1.5625 11.4375C0.5625 10.2188 0 8.6875 0 7C0 3.15625 3.125 0 7 0H7.75C10.1875 0 12.4688 1.5 13.4688 3.65625C13.5938 3.9375 13.7188 4.21875 13.8438 4.5L13.875 4.59375C14 4.90625 14.1562 5.21875 14.2812 5.5C14.5625 6.09375 14.875 6.59375 15.2812 6.96875L15.4062 7.125C15.7812 7.5 16 8 16 8.53125C16 9.625 15.0938 10.5 14 10.5V12C14 13.125 13.0938 14 12 14H10V15.25C10 15.6875 9.65625 16 9.25 16C8.8125 16 8.5 15.6875 8.5 15.25V13.25C8.5 12.8438 8.8125 12.5 9.25 12.5H12C12.25 12.5 12.5 12.2812 12.5 12V9.75C12.5 9.34375 12.8125 9 13.25 9H14C14.2812 9 14.5 8.78125 14.5 8.53125C14.5 8.40625 14.4375 8.28125 14.3438 8.1875L14.2188 8.03125C13.625 7.46875 13.25 6.8125 12.9375 6.15625C12.7812 5.84375 12.625 5.5 12.5 5.1875L12.4688 5.09375C12.3438 4.8125 12.2188 4.53125 12.0938 4.28125C11.3438 2.65625 9.625 1.5 7.75 1.5H7C3.9375 1.5 1.5 3.96875 1.5 7ZM3.5 5.9375H3.46875C3.46875 4.875 4.34375 4 5.40625 4C5.90625 4 6.375 4.21875 6.75 4.5625L6.96875 4.8125L7.21875 4.5625C7.5625 4.21875 8.0625 4 8.5625 4C9.625 4 10.4688 4.875 10.4688 5.9375C10.4688 6.4375 10.2812 6.9375 9.90625 7.28125L7.34375 9.875C7.15625 10.0625 6.8125 10.0625 6.625 9.875L4.03125 7.28125C3.6875 6.9375 3.5 6.4375 3.5 5.9375Z" fill="#171717"/>
</svg>
